<svg width="179" height="57" viewBox="0 0 179 57" fill="none" xmlns="http://www.w3.org/2000/svg">
<g id="AS">
<g id="Group 18">
<g id="Group 13">
<g id="Group 12">
<path id="Path 11" d="M163.932 0.444519H14.1925C13.6462 0.444519 13.1074 0.444519 12.5626 0.447306C12.1072 0.450093 11.6547 0.458454 11.1947 0.465421C10.2034 0.487716 9.20169 0.544847 8.21186 0.710668C7.21608 0.875094 6.29025 1.15378 5.38229 1.58436C4.49219 2.01215 3.678 2.56674 2.97395 3.22723C2.26098 3.88773 1.67155 4.65273 1.21905 5.48601C0.75614 6.33462 0.462913 7.20553 0.288762 8.13774C0.110146 9.0616 0.0476309 9.99521 0.022327 10.9274C0.00893079 11.3552 0.00744232 11.7844 0 12.2108V13.7324V42.8959V44.4203C0.00744232 44.8523 0.00893079 45.2717 0.022327 45.7037C0.0476309 46.6373 0.110146 47.5709 0.288762 48.4934C0.462913 49.427 0.75614 50.3021 1.21905 51.1479C1.67155 51.977 2.26098 52.742 2.97395 53.3969C3.678 54.0616 4.49219 54.6162 5.38229 55.0398C6.29025 55.4746 7.21608 55.7505 8.21186 55.9177C9.20169 56.0849 10.2034 56.1392 11.1947 56.1643C11.6547 56.1741 12.1072 56.1796 12.5626 56.1796C13.1074 56.1824 13.6462 56.1824 14.1925 56.1824H163.932C164.466 56.1824 165.01 56.1824 165.546 56.1796C165.998 56.1796 166.464 56.1741 166.918 56.1643C167.915 56.1392 168.914 56.0849 169.895 55.9177C170.892 55.7505 171.819 55.4746 172.735 55.0398C173.623 54.6162 174.438 54.0616 175.142 53.3969C175.852 52.742 176.441 51.977 176.901 51.1479C177.357 50.3021 177.654 49.427 177.822 48.4934C178.006 47.5709 178.064 46.6373 178.098 45.7037C178.104 45.2717 178.104 44.8523 178.104 44.4203C178.116 43.9131 178.116 43.4101 178.116 42.8959V13.7324C178.116 13.2224 178.116 12.7166 178.104 12.2108C178.104 11.7844 178.104 11.3552 178.098 10.9274C178.064 9.99521 178.006 9.0616 177.822 8.13774C177.654 7.20553 177.357 6.33462 176.901 5.48601C176.441 4.65273 175.852 3.88773 175.142 3.22723C174.438 2.56674 173.623 2.01215 172.735 1.58436C171.819 1.15378 170.892 0.875094 169.895 0.710668C168.914 0.544847 167.915 0.487716 166.918 0.465421C166.464 0.458454 165.998 0.450093 165.546 0.447306C165.01 0.444519 164.466 0.444519 163.932 0.444519Z" fill="#A2A2A2"/>
<path id="Path 12" d="M12.57 54.8802C12.116 54.8802 11.6739 54.8747 11.2244 54.865C10.3909 54.8441 9.40401 54.7997 8.44097 54.6385C7.53301 54.4857 6.72626 54.2357 5.97607 53.8773C5.19909 53.5106 4.501 53.0355 3.89669 52.466C3.28046 51.9006 2.7729 51.2533 2.37697 50.5254C1.99145 49.8239 1.72799 49.071 1.56873 48.2237C1.38714 47.2888 1.34099 46.3414 1.32164 45.6191C1.31122 45.326 1.29932 44.3508 1.29932 44.3508V12.2611C1.29932 12.2611 1.31271 11.3012 1.32164 11.0192C1.34099 10.2913 1.38714 9.34397 1.56724 8.41882C1.72651 7.56591 1.98996 6.81302 2.37697 6.11013C2.77141 5.38085 3.27898 4.72936 3.88776 4.16816C4.50249 3.59307 5.20356 3.11661 5.97458 2.7471C6.73966 2.38455 7.54492 2.13729 8.43502 1.99143C9.43824 1.82474 10.4534 1.78168 11.2274 1.76362L12.57 1.74695H165.538L166.897 1.76501C167.661 1.78168 168.676 1.82474 169.663 1.99004C170.56 2.13729 171.371 2.38594 172.15 2.75127C172.913 3.11661 173.613 3.59307 174.222 4.1626C174.831 4.72658 175.341 5.38224 175.744 6.11291C176.128 6.82274 176.39 7.57564 176.541 8.40354C176.715 9.28007 176.769 10.1802 176.8 11.0248C176.804 11.4179 176.804 11.8416 176.804 12.2611C176.816 12.782 176.816 13.2779 176.816 13.778V42.8506C176.816 43.3548 176.816 43.848 176.804 44.3439C176.804 44.7953 176.804 45.2093 176.798 45.6357C176.769 46.4539 176.715 47.3527 176.544 48.2098C176.39 49.0613 176.128 49.8142 175.74 50.5296C175.34 51.2519 174.829 51.9034 174.229 52.4549C173.614 53.0355 172.916 53.5092 172.145 53.8745C171.374 54.2413 170.585 54.4844 169.663 54.6385C168.71 54.7997 167.723 54.8441 166.881 54.865C166.445 54.8747 165.989 54.8802 165.545 54.8802L163.932 54.883L12.57 54.8802Z" fill="black"/>
</g>
</g>
<g id="Group 17">
<g id="Group 15">
<g id="Group 14">
<path id="Path 13" d="M36.868 27.492C36.8308 23.3972 40.2201 21.4041 40.3749 21.3118C38.4562 18.512 35.4808 18.1295 34.4344 18.0997C31.9353 17.8378 29.5121 19.5956 28.2379 19.5956C26.94 19.5956 24.9797 18.125 22.8675 18.1697C20.1496 18.2114 17.6043 19.7847 16.2096 22.2287C13.331 27.2136 15.4788 34.5383 18.2354 38.5676C19.6153 40.5398 21.2273 42.7428 23.3379 42.6654C25.4024 42.579 26.1734 41.3481 28.6651 41.3481C31.1345 41.3481 31.8579 42.6654 34.0102 42.6162C36.2265 42.579 37.6212 40.6336 38.9534 38.642C40.5475 36.3811 41.1876 34.1528 41.2129 34.0397C41.1608 34.0218 36.9097 32.4009 36.868 27.492Z" fill="white"/>
<path id="Path 14" d="M32.8017 15.4503C33.9121 14.0615 34.6713 12.1727 34.4614 10.254C32.8538 10.3255 30.8429 11.3659 29.6864 12.7249C28.6623 13.9216 27.7484 15.8834 27.9836 17.7276C29.7891 17.8616 31.6437 16.8167 32.8017 15.4503Z" fill="white"/>
</g>
</g>
<g id="Group 16">
<path id="Path 15" d="M61.6617 37.7229H55.4003L53.8961 42.1626H51.2437L57.1756 25.7346H59.9313L65.862 42.1626H63.1645L61.6617 37.7229ZM56.0485 35.6737H61.0121L58.5647 28.4677H58.4972L56.0485 35.6737Z" fill="white"/>
<path id="Path 16" d="M78.6719 36.175C78.6719 39.8964 76.6796 42.2883 73.6726 42.2883C71.966 42.2883 70.6113 41.525 69.9049 40.1928H69.848V46.1248H67.3887V30.1848H69.7686V32.1772H69.8136C70.4975 30.8926 71.9554 30.0605 73.6276 30.0605C76.6677 30.0605 78.6719 32.4629 78.6719 36.175ZM76.1451 36.175C76.1451 33.7501 74.891 32.156 72.9794 32.156C71.1008 32.156 69.8374 33.7832 69.8374 36.175C69.8374 38.5881 71.1008 40.2047 72.9794 40.2047C74.891 40.2047 76.1451 38.6211 76.1451 36.175Z" fill="white"/>
<path id="Path 17" d="M91.8545 36.175C91.8545 39.8964 89.8622 42.2883 86.8552 42.2883C85.1486 42.2883 83.7939 41.525 83.0875 40.1928H83.0306V46.1248H80.5713V30.1848H82.9512V32.1772H82.9962C83.6802 30.8926 85.1367 30.0605 86.8102 30.0605C89.8503 30.0605 91.8545 32.4629 91.8545 36.175ZM89.3264 36.175C89.3264 33.7501 88.0736 32.156 86.162 32.156C84.2834 32.156 83.02 33.7832 83.02 36.175C83.02 38.5881 84.2834 40.2047 86.162 40.2047C88.0736 40.2047 89.3264 38.6211 89.3264 36.175Z" fill="white"/>
<path id="Path 18" d="M100.566 37.5853C100.749 39.2151 102.331 40.2841 104.494 40.2841C106.567 40.2841 108.058 39.2151 108.058 37.7454C108.058 36.4701 107.158 35.7067 105.03 35.1842L102.9 34.6709C99.8834 33.942 98.4824 32.5317 98.4824 30.2417C98.4824 27.408 100.952 25.4607 104.461 25.4607C107.932 25.4607 110.312 27.408 110.391 30.2417H107.91C107.761 28.6026 106.407 27.6131 104.425 27.6131C102.445 27.6131 101.09 28.6145 101.09 30.0711C101.09 31.2326 101.955 31.9166 104.073 32.4391L105.883 32.8836C109.254 33.6813 110.653 35.0347 110.653 37.4384C110.653 40.5116 108.206 42.4365 104.313 42.4365C100.669 42.4365 98.2086 40.5566 98.0498 37.5853H100.566Z" fill="white"/>
<path id="Path 19" d="M115.96 27.3511V30.1848H118.238V32.1322H115.96V38.7349C115.96 39.7615 116.416 40.2391 117.418 40.2391C117.668 40.2391 118.067 40.2047 118.226 40.1822V42.1176C117.954 42.1864 117.407 42.2314 116.861 42.2314C114.436 42.2314 113.49 41.3199 113.49 38.9982V32.1322H111.749V30.1848H113.49V27.3511H115.96Z" fill="white"/>
<path id="Path 20" d="M119.557 36.1751C119.557 32.4061 121.777 30.038 125.237 30.038C128.71 30.038 130.919 32.4061 130.919 36.1751C130.919 39.9533 128.722 42.3108 125.237 42.3108C121.754 42.3108 119.557 39.9533 119.557 36.1751ZM128.414 36.1751C128.414 33.5901 127.23 32.0634 125.237 32.0634C123.245 32.0634 122.062 33.6007 122.062 36.1751C122.062 38.7707 123.245 40.2841 125.237 40.2841C127.23 40.2841 128.414 38.7707 128.414 36.1751Z" fill="white"/>
<path id="Path 21" d="M132.946 30.1848H135.292V32.2235H135.347C135.724 30.8688 136.817 30.0605 138.229 30.0605C138.582 30.0605 138.877 30.1068 139.071 30.1518V32.451C138.877 32.3716 138.444 32.3028 137.967 32.3028C136.385 32.3028 135.404 33.3744 135.404 35.0585V42.1626H132.946V30.1848Z" fill="white"/>
<path id="Path 22" d="M150.406 38.645C150.075 40.8185 147.958 42.3108 145.249 42.3108C141.765 42.3108 139.602 39.9772 139.602 36.232C139.602 32.4749 141.776 30.038 145.146 30.038C148.46 30.038 150.543 32.3148 150.543 35.9462V36.7889H142.083V36.9371C142.083 38.9863 143.371 40.3291 145.306 40.3291C146.671 40.3291 147.743 39.6808 148.072 38.645H150.406ZM142.095 35.0704H148.083C148.026 33.2369 146.854 32.0304 145.146 32.0304C143.45 32.0304 142.221 33.2607 142.095 35.0704Z" fill="white"/>
</g>
</g>
</g>
<g id="Group 20">
<g id="Group 19">
<path id="Path 23" d="M54.6832 17.1825H55.871C56.8564 17.1825 57.5455 16.6035 57.5455 15.767C57.5455 14.9483 56.9293 14.4184 55.8844 14.4184C54.8499 14.4184 54.1727 14.9424 54.0923 15.8101H52.7884C52.8792 14.21 54.0744 13.2128 55.9261 13.2128C57.675 13.2128 58.906 14.1922 58.906 15.6003C58.906 16.5797 58.254 17.4102 57.2925 17.632V17.7362C58.4445 17.8538 59.2677 18.6472 59.2677 19.8841C59.2677 21.4053 57.8298 22.5246 55.9514 22.5246C54.0193 22.5246 52.6946 21.4797 52.6157 19.8975H53.939C54.0193 20.7459 54.7993 21.2951 55.9514 21.2951C57.102 21.2951 57.8536 20.6789 57.8536 19.8111C57.8536 18.9314 57.1466 18.3882 55.9097 18.3882H54.6832V17.1825Z" fill="white"/>
<path id="Path 24" d="M60.7725 20.414C60.7725 19.2083 61.673 18.5117 63.2656 18.4135L65.0816 18.3093V17.7303C65.0816 17.0232 64.6142 16.6228 63.7092 16.6228C62.9709 16.6228 62.4604 16.8937 62.3115 17.3671H61.0315C61.1669 16.2165 62.2505 15.4782 63.7717 15.4782C65.4522 15.4782 66.3989 16.3147 66.3989 17.7303V22.3103H65.1247V21.3681H65.0205C64.6201 22.0394 63.8878 22.4204 63.0066 22.4204C61.7147 22.4204 60.7725 21.639 60.7725 20.414ZM65.0816 19.8424V19.2812L63.4443 19.3854C62.5214 19.4479 62.1031 19.762 62.1031 20.3529C62.1031 20.9558 62.6256 21.307 63.346 21.307C64.3433 21.307 65.0816 20.673 65.0816 19.8424Z" fill="white"/>
<path id="Path 25" d="M69.9102 16.7211V22.3103H68.5869V15.6077H73.0002V16.7211H69.9102Z" fill="white"/>
<path id="Path 26" d="M81.0168 18.9553C81.0168 21.0853 79.9392 22.4204 78.2468 22.4204C77.2927 22.4204 76.535 22.0022 76.1852 21.2952H76.0796V24.5385H74.7578V15.6077H76.0304V16.7151H76.1302C76.535 15.9516 77.3224 15.4961 78.2349 15.4961C79.9392 15.4961 81.0168 16.8253 81.0168 18.9553ZM79.6563 18.9553C79.6563 17.5398 78.985 16.6839 77.8657 16.6839C76.7509 16.6839 76.0557 17.5576 76.0557 18.9612C76.0557 20.3589 76.7509 21.2326 77.8598 21.2326C78.985 21.2326 79.6563 20.3768 79.6563 18.9553Z" fill="white"/>
<path id="Path 27" d="M82.7779 24.7112V23.571C82.8836 23.5904 83.086 23.5963 83.2096 23.5963C83.8377 23.5963 84.1935 23.3373 84.4227 22.6616L84.5209 22.3341L82.0947 15.6077H83.5356L85.216 20.9305H85.3202L86.9948 15.6077H88.3984L85.8992 22.5871C85.3262 24.217 84.6921 24.7409 83.3257 24.7409C83.2155 24.7409 82.9015 24.729 82.7779 24.7112Z" fill="white"/>
<path id="Path 28" d="M89.4287 20.408H90.746C90.8755 20.9989 91.4292 21.307 92.2032 21.307C93.0844 21.307 93.6247 20.9185 93.6247 20.3157C93.6247 19.6697 93.1395 19.3616 92.2032 19.3616H91.2015V18.3331H92.1868C92.9861 18.3331 93.3925 18.0265 93.3925 17.4653C93.3925 16.9741 92.9995 16.5975 92.1868 16.5975C91.4471 16.5975 90.9053 16.9116 90.8204 17.4415H89.5448C89.6803 16.2477 90.6716 15.4782 92.1868 15.4782C93.7795 15.4782 94.6904 16.1986 94.6904 17.3313C94.6904 18.0012 94.2662 18.5489 93.6321 18.7022V18.8079C94.4999 19.0103 94.9435 19.57 94.9435 20.3157C94.9435 21.5898 93.8599 22.4323 92.2032 22.4323C90.74 22.4323 89.5508 21.7625 89.4287 20.408Z" fill="white"/>
<path id="Path 29" d="M96.8486 22.3103V15.6077H98.16V20.2175H98.2641L101.353 15.6077H102.664V22.3103H101.353V17.6752H101.254L98.16 22.3103H96.8486Z" fill="white"/>
<path id="Path 30" d="M109.887 16.7211H107.777V22.3103H106.452V16.7211H104.341V15.6077H109.887V16.7211Z" fill="white"/>
<path id="Path 31" d="M117.013 20.5003C116.711 21.7015 115.639 22.4398 114.107 22.4398C112.187 22.4398 111.011 21.1225 111.011 18.9791C111.011 16.8372 112.211 15.4782 114.101 15.4782C115.966 15.4782 117.093 16.7523 117.093 18.857V19.3184H112.36V19.3929C112.401 20.5673 113.085 21.313 114.144 21.313C114.944 21.313 115.492 21.0227 115.737 20.5003H117.013ZM112.36 18.3405H115.743C115.713 17.2882 115.073 16.6035 114.095 16.6035C113.116 16.6035 112.433 17.2941 112.36 18.3405Z" fill="white"/>
<path id="Path 32" d="M122.62 15.6077H125.643C126.954 15.6077 127.722 16.2716 127.722 17.312C127.722 17.9893 127.243 18.604 126.589 18.7275V18.8317C127.457 18.9315 128.023 19.5656 128.023 20.3768C128.023 21.5467 127.143 22.3103 125.672 22.3103H122.62V15.6077ZM123.931 16.6229V18.3584H125.242C126.042 18.3584 126.424 18.0503 126.424 17.4847C126.424 16.9607 126.091 16.6229 125.39 16.6229H123.931ZM123.931 19.3304V21.2952H125.5C126.281 21.2952 126.701 20.9498 126.701 20.3157C126.701 19.6444 126.226 19.3304 125.335 19.3304H123.931Z" fill="white"/>
</g>
</g>
</g>
</svg>
