<svg width="178" height="57" viewBox="0 0 178 57" fill="none" xmlns="http://www.w3.org/2000/svg">
<g id="PM">
<g id="Group 27">
<path id="Rectangle 6" d="M0.967285 8.04858C0.967285 4.18259 4.10129 1.04858 7.96729 1.04858H170.093C173.959 1.04858 177.093 4.18259 177.093 8.04858V49.1809C177.093 53.0469 173.959 56.1809 170.093 56.1809H7.96729C4.10129 56.1809 0.967285 53.0469 0.967285 49.1809V8.04858Z" fill="black"/>
<g id="Group 24">
<g id="Group 23">
<path id="Path 33" d="M171.101 1.55928C174.132 1.55928 176.597 4.18453 176.597 7.41176V49.2152C176.597 52.4424 174.132 55.0677 171.101 55.0677H7.51087C4.47988 55.0677 2.01426 52.4424 2.01426 49.2152V7.41176C2.01426 4.18453 4.47988 1.55928 7.51087 1.55928H171.101ZM171.101 0.444519H7.51087C3.9119 0.444519 0.967285 3.57977 0.967285 7.41176V49.2152C0.967285 53.0472 3.9119 56.1824 7.51087 56.1824H171.101C174.7 56.1824 177.644 53.0472 177.644 49.2152V7.41176C177.644 3.57977 174.7 0.444519 171.101 0.444519Z" fill="#A6A6A6"/>
</g>
</g>
<path id="Path 34" d="M90.1381 30.301C87.06 30.301 84.5512 32.6409 84.5512 35.8669C84.5512 39.0707 87.06 41.4329 90.1381 41.4329C93.2162 41.4329 95.725 39.0707 95.725 35.8669C95.725 32.6409 93.2162 30.301 90.1381 30.301ZM90.1381 39.2395C88.4512 39.2395 86.9959 37.8483 86.9959 35.8669C86.9959 33.8633 88.4512 32.4931 90.1381 32.4931C91.825 32.4931 93.279 33.8633 93.279 35.8669C93.279 37.8483 91.825 39.2395 90.1381 39.2395ZM77.95 30.301C74.8706 30.301 72.3618 32.6409 72.3618 35.8669C72.3618 39.0707 74.8706 41.4329 77.95 41.4329C81.0281 41.4329 83.5369 39.0707 83.5369 35.8669C83.5369 32.6409 81.0281 30.301 77.95 30.301ZM77.95 39.2395C76.2631 39.2395 74.8078 37.8483 74.8078 35.8669C74.8078 33.8633 76.2631 32.4931 77.95 32.4931C79.6356 32.4931 81.0909 33.8633 81.0909 35.8669C81.0909 37.8483 79.6356 39.2395 77.95 39.2395ZM63.4507 32.0088V34.3698H69.1005C68.9316 35.6981 68.4893 36.6679 67.8153 37.3419C66.9921 38.165 65.7056 39.0707 63.4507 39.0707C59.9722 39.0707 57.2513 36.2674 57.2513 32.7888C57.2513 29.3089 59.9722 26.5057 63.4507 26.5057C65.3274 26.5057 66.6976 27.2438 67.7093 28.1926L69.3753 26.5266C67.9619 25.1773 66.0865 24.1434 63.4507 24.1434C58.6857 24.1434 54.6797 28.0238 54.6797 32.7888C54.6797 37.5539 58.6857 41.4329 63.4507 41.4329C66.0224 41.4329 67.9619 40.5901 69.48 39.0079C71.04 37.4479 71.5255 35.2558 71.5255 33.4838C71.5255 32.9354 71.4836 32.4302 71.3986 32.0088H63.4507ZM122.746 33.8423C122.283 32.5991 120.869 30.301 117.981 30.301C115.114 30.301 112.732 32.5559 112.732 35.8669C112.732 38.9869 115.093 41.4329 118.256 41.4329C120.807 41.4329 122.283 39.8729 122.894 38.966L120.996 37.7004C120.363 38.6283 119.499 39.2395 118.256 39.2395C117.011 39.2395 116.125 38.6702 115.556 37.5539L122.999 34.4745L122.746 33.8423ZM115.156 35.6981C115.093 33.5479 116.822 32.4512 118.065 32.4512C119.036 32.4512 119.858 32.9354 120.131 33.6316L115.156 35.6981ZM109.105 41.0953H111.55V24.7337H109.105V41.0953ZM105.098 31.5442H105.014C104.466 30.8912 103.412 30.301 102.084 30.301C99.3004 30.301 96.7497 32.7456 96.7497 35.8879C96.7497 39.0079 99.3004 41.4329 102.084 41.4329C103.412 41.4329 104.466 40.8427 105.014 40.1674H105.098V40.9696C105.098 43.0989 103.961 44.2375 102.126 44.2375C100.629 44.2375 99.7009 43.1617 99.3214 42.2548L97.1921 43.1408C97.8032 44.617 99.4274 46.4296 102.126 46.4296C104.993 46.4296 107.418 44.7427 107.418 40.632V30.6373H105.098V31.5442ZM102.295 39.2395C100.608 39.2395 99.1957 37.8274 99.1957 35.8879C99.1957 33.9274 100.608 32.4931 102.295 32.4931C103.961 32.4931 105.267 33.9274 105.267 35.8879C105.267 37.8274 103.961 39.2395 102.295 39.2395ZM134.203 24.735H128.351V41.0953H130.792V34.8972H134.203C136.909 34.8972 139.57 32.9367 139.57 29.8154C139.57 26.6941 136.909 24.735 134.203 24.735ZM134.265 32.62H130.792V27.0121H134.265C136.091 27.0121 137.128 28.5237 137.128 29.8154C137.128 31.0836 136.091 32.62 134.265 32.62ZM149.358 30.2709C147.589 30.2709 145.757 31.0495 145 32.7744L147.168 33.6801C147.631 32.7744 148.494 32.48 149.399 32.48C150.662 32.48 151.946 33.2377 151.967 34.5857V34.7532C151.525 34.5006 150.579 34.1224 149.42 34.1224C147.084 34.1224 144.705 35.4063 144.705 37.8051C144.705 39.9946 146.621 41.4054 148.767 41.4054C150.41 41.4054 151.314 40.6686 151.883 39.8049H151.967V41.0678H154.324V34.7951C154.324 31.891 152.157 30.2709 149.358 30.2709ZM149.063 39.2369C148.262 39.2369 147.147 38.8377 147.147 37.8483C147.147 36.5854 148.536 36.1012 149.736 36.1012C150.809 36.1012 151.314 36.3328 151.967 36.6482C151.777 38.1637 150.473 39.2369 149.063 39.2369ZM162.912 30.6281L160.113 37.7214H160.029L157.124 30.6281H154.493L158.85 40.5417L156.366 46.0566H158.913L165.628 30.6281H162.912ZM140.916 41.0953H143.358V24.735H140.916V41.0953Z" fill="white"/>
<g id="Group 26">
<path id="Path 35" d="M14.6237 12.0045C14.2441 12.4076 14.019 13.0331 14.019 13.8432V42.7868C14.019 43.5982 14.2441 44.2225 14.6237 44.6256L14.7205 44.7198L30.9342 28.5061V28.315V28.1239L14.7205 11.9089L14.6237 12.0045Z" fill="url(#paint0_linear_415_308)"/>
<path id="Path 36" d="M36.3396 33.9137L30.9346 28.5061V28.315V28.1239L36.3409 22.7176L36.4626 22.7883L42.8662 26.4265C44.6944 27.4656 44.6944 29.1656 42.8662 30.2048L36.4626 33.843L36.3396 33.9137Z" fill="url(#paint1_linear_415_308)"/>
<path id="Path 37" d="M36.4626 33.843L30.9346 28.315L14.624 44.6256C15.2273 45.2642 16.2233 45.3427 17.3448 44.7054L36.4626 33.843Z" fill="url(#paint2_linear_415_308)"/>
<path id="Path 38" d="M36.4626 22.787L17.3448 11.9246C16.2233 11.2873 15.2273 11.3658 14.624 12.0044L30.9346 28.315L36.4626 22.787Z" fill="url(#paint3_linear_415_308)"/>
<g id="Group 25">
<path id="Path 39" opacity="0.2" d="M36.3409 33.7213L17.3448 44.5143C16.2822 45.1189 15.332 45.0784 14.7222 44.5287L14.624 44.6256L14.7209 44.7211L14.7222 44.7198C15.332 45.2694 16.2822 45.31 17.3448 44.7054L36.4626 33.843L36.3409 33.7213Z" fill="black"/>
<path id="Path 40" opacity="0.12" d="M14.6237 44.4345C14.2441 44.0314 14.019 43.4071 14.019 42.5957V42.7881C14.019 43.5982 14.2441 44.2237 14.6237 44.6255L14.7218 44.5287L14.6237 44.4345Z" fill="black"/>
</g>
<path id="Path 41" opacity="0.12" d="M42.8661 30.0137L36.3408 33.7213L36.4625 33.843L42.8661 30.2048C43.7796 29.6852 44.2376 29.0008 44.2376 28.315C44.1604 28.9353 43.6958 29.5426 42.8661 30.0137Z" fill="black"/>
<path id="Path 42" opacity="0.25" d="M17.3445 12.1157L42.8658 26.6163C43.6955 27.0874 44.1601 27.6947 44.2373 28.315C44.2386 27.6305 43.7806 26.9448 42.8658 26.4252L17.3445 11.9246C15.5149 10.8855 14.019 11.7493 14.019 13.8432V14.0356C14.019 11.9403 15.5149 11.0766 17.3445 12.1157Z" fill="white"/>
</g>
</g>
<g id="Group 28">
<path id="Path 43" d="M55.9793 21.141H55.1182V18.7924H55.8029C56.4105 18.2689 56.7073 17.375 56.6945 16.1095V12.6426H61.3754V18.7924H62.1583V21.141H61.2971V19.6536H55.9793V21.141ZM57.5954 16.1095C57.6082 17.2184 57.3862 18.1135 56.9293 18.7924H60.4733V13.5038H57.5954V16.1095Z" fill="white" stroke="white" stroke-width="0.2"/>
<path id="Path 44" d="M69.184 18.748C68.4946 19.4561 67.637 19.8101 66.6122 19.8101C65.5874 19.8101 64.7309 19.4561 64.0427 18.748C63.3533 18.0399 63.0098 17.1729 63.0098 16.1481C63.0098 15.1234 63.3533 14.2563 64.0427 13.5482C64.7309 12.8401 65.5874 12.4861 66.6122 12.4861C67.6311 12.4861 68.4865 12.8413 69.1794 13.5529C69.8699 14.2645 70.2158 15.1292 70.2158 16.1481C70.2158 17.1729 69.8711 18.0399 69.184 18.748ZM64.7076 18.1602C65.2276 18.6861 65.862 18.9478 66.6122 18.9478C67.3635 18.9478 67.9992 18.6861 68.5168 18.1602C69.0368 17.6356 69.2962 16.9637 69.2962 16.1481C69.2962 15.3325 69.0368 14.6606 68.5168 14.136C67.9992 13.6102 67.3635 13.3484 66.6122 13.3484C65.862 13.3484 65.2276 13.6102 64.7076 14.136C64.1899 14.6606 63.9294 15.3325 63.9294 16.1481C63.9294 16.9637 64.1899 17.6356 64.7076 18.1602Z" fill="white" stroke="white" stroke-width="0.2"/>
<path id="Path 45" d="M74.7511 19.8101C73.7193 19.8101 72.8546 19.4608 72.1558 18.762C71.4571 18.0644 71.1089 17.1927 71.1089 16.1481C71.1089 15.1035 71.4571 14.2318 72.1558 13.5342C72.8546 12.8355 73.7193 12.4861 74.7511 12.4861C75.8074 12.4861 76.6674 12.867 77.3264 13.6312L76.6989 14.2388C76.2234 13.6441 75.5725 13.3484 74.7511 13.3484C73.9869 13.3484 73.3419 13.6055 72.8172 14.122C72.2914 14.6373 72.0285 15.3126 72.0285 16.1481C72.0285 16.9836 72.2914 17.659 72.8172 18.1743C73.3419 18.6907 73.9869 18.9478 74.7511 18.9478C75.5935 18.9478 76.311 18.6089 76.9057 17.9301L77.532 18.5564C77.2119 18.942 76.8111 19.2469 76.3273 19.4725C75.8447 19.698 75.3189 19.8101 74.7511 19.8101Z" fill="white" stroke="white" stroke-width="0.2"/>
<path id="Path 46" d="M81.1757 19.6536H80.2748V13.5038H78.3164V12.6426H83.1341V13.5038H81.1757V19.6536Z" fill="white" stroke="white" stroke-width="0.2"/>
<path id="Path 47" d="M89.3199 12.6426L86.6663 18.5563C86.3006 19.3918 85.7561 19.8101 85.0316 19.8101C84.8154 19.8101 84.5841 19.7575 84.3352 19.6536L84.5712 18.8216C84.7208 18.9057 84.8774 18.9478 85.0409 18.9478C85.2501 18.9478 85.4113 18.9081 85.5259 18.8263C85.6404 18.7445 85.7455 18.5961 85.8437 18.3811L86.0984 17.8225L83.7393 12.6426H84.7967L86.5296 16.6669H86.5682L88.2613 12.6426H89.3199Z" fill="white" stroke="white" stroke-width="0.2"/>
<path id="Path 48" d="M90.3398 19.6536V12.6426H95.4111V19.6536H94.5102V13.5038H91.2396V19.6536H90.3398Z" fill="white" stroke="white" stroke-width="0.2"/>
<path id="Path 49" d="M97.0166 19.6536V12.6426H97.9175V15.648H101.423V12.6426H102.324V19.6536H101.423V16.4905H97.9175V19.6536H97.0166Z" fill="white" stroke="white" stroke-width="0.2"/>
<path id="Path 50" d="M109.665 18.748C108.975 19.4561 108.117 19.8101 107.093 19.8101C106.068 19.8101 105.211 19.4561 104.523 18.748C103.834 18.0399 103.49 17.1729 103.49 16.1481C103.49 15.1234 103.834 14.2563 104.523 13.5482C105.211 12.8401 106.068 12.4861 107.093 12.4861C108.112 12.4861 108.967 12.8413 109.66 13.5529C110.352 14.2645 110.696 15.1292 110.696 16.1481C110.696 17.1729 110.353 18.0399 109.665 18.748ZM105.189 18.1602C105.708 18.6861 106.342 18.9478 107.093 18.9478C107.844 18.9478 108.48 18.6861 108.997 18.1602C109.517 17.6356 109.777 16.9637 109.777 16.1481C109.777 15.3325 109.517 14.6606 108.997 14.136C108.48 13.6102 107.844 13.3484 107.093 13.3484C106.342 13.3484 105.708 13.6102 105.189 14.136C104.67 14.6606 104.41 15.3325 104.41 16.1481C104.41 16.9637 104.67 17.6356 105.189 18.1602Z" fill="white" stroke="white" stroke-width="0.2"/>
<path id="Path 51" d="M114.38 19.6536V12.6426H116.916C117.464 12.6426 117.939 12.8238 118.34 13.186C118.742 13.5482 118.943 14.0039 118.943 14.5519C118.943 14.885 118.856 15.1782 118.682 15.433C118.51 15.6877 118.28 15.8805 117.992 16.0114V16.0499C118.338 16.168 118.623 16.3701 118.845 16.6564C119.066 16.945 119.178 17.278 119.178 17.6566C119.178 18.2303 118.966 18.7071 118.546 19.0857C118.125 19.4643 117.627 19.6536 117.052 19.6536H114.38ZM115.28 15.648H116.916C117.256 15.648 117.528 15.537 117.733 15.3103C117.939 15.0859 118.041 14.8394 118.041 14.5718C118.041 14.3042 117.943 14.0588 117.743 13.838C117.544 13.616 117.281 13.5038 116.955 13.5038H115.28V15.648ZM115.28 18.7924H117.092C117.438 18.7924 117.718 18.6709 117.934 18.429C118.149 18.1883 118.257 17.9242 118.257 17.6356C118.257 17.3493 118.146 17.0864 117.924 16.848C117.702 16.6096 117.411 16.4905 117.052 16.4905H115.28V18.7924Z" fill="white" stroke="white" stroke-width="0.2"/>
</g>
</g>
<defs>
<linearGradient id="paint0_linear_415_308" x1="7.53347" y1="206.964" x2="29.4969" y2="206.964" gradientUnits="userSpaceOnUse">
<stop stop-color="#00A0FF"/>
<stop offset="0.00657445" stop-color="#00A1FF"/>
<stop offset="0.2601" stop-color="#00BEFF"/>
<stop offset="0.5122" stop-color="#00D2FF"/>
<stop offset="0.7604" stop-color="#00DFFF"/>
<stop offset="1" stop-color="#00E3FF"/>
</linearGradient>
<linearGradient id="paint1_linear_415_308" x1="13.5803" y1="214.15" x2="45.2472" y2="214.15" gradientUnits="userSpaceOnUse">
<stop stop-color="#FFE000"/>
<stop offset="0.4087" stop-color="#FFBD00"/>
<stop offset="0.7754" stop-color="#FFA500"/>
<stop offset="1" stop-color="#FF9C00"/>
</linearGradient>
<linearGradient id="paint2_linear_415_308" x1="3.67486" y1="181.363" x2="33.459" y2="181.363" gradientUnits="userSpaceOnUse">
<stop stop-color="#FF3A44"/>
<stop offset="1" stop-color="#C31162"/>
</linearGradient>
<linearGradient id="paint3_linear_415_308" x1="23.8176" y1="226.796" x2="10.5177" y2="226.796" gradientUnits="userSpaceOnUse">
<stop stop-color="#32A071"/>
<stop offset="0.0685" stop-color="#2DA771"/>
<stop offset="0.4762" stop-color="#15CF74"/>
<stop offset="0.8009" stop-color="#06E775"/>
<stop offset="1" stop-color="#00F076"/>
</linearGradient>
</defs>
</svg>
