<svg width="24" height="24" viewBox="0 0 24 24" fill="none" xmlns="http://www.w3.org/2000/svg">
<g id="minimize-02">
<g id="Solid">
<path fill-rule="evenodd" clip-rule="evenodd" d="M7.99988 1.99993C8.55216 1.99993 8.99988 2.44765 8.99988 2.99993V3.24123C8.99989 4.0462 8.9999 4.71056 8.95568 5.25176C8.90976 5.81385 8.81119 6.33056 8.5639 6.81589C8.18041 7.56854 7.56849 8.18046 6.81584 8.56396C6.3305 8.81125 5.8138 8.90981 5.2517 8.95574C4.71051 8.99996 4.04615 8.99994 3.24118 8.99993H2.99988C2.44759 8.99993 1.99988 8.55222 1.99988 7.99993C1.99988 7.44765 2.44759 6.99993 2.99988 6.99993H3.19988C4.05646 6.99993 4.63875 6.99915 5.08884 6.96238C5.52726 6.92656 5.75146 6.86163 5.90786 6.78194C6.28418 6.5902 6.59014 6.28424 6.78189 5.90791C6.86158 5.75151 6.92651 5.52731 6.96233 5.08889C6.9991 4.6388 6.99988 4.05651 6.99988 3.19993V2.99993C6.99988 2.44765 7.44759 1.99993 7.99988 1.99993Z" fill="#000"/>
<path fill-rule="evenodd" clip-rule="evenodd" d="M5.08884 17.0375C4.63875 17.0007 4.05646 16.9999 3.19988 16.9999H2.99988C2.44759 16.9999 1.99988 16.5522 1.99988 15.9999C1.99988 15.4476 2.44759 14.9999 2.99988 14.9999H3.19988C3.21369 14.9999 3.22745 14.9999 3.24118 14.9999C4.04615 14.9999 4.71051 14.9999 5.2517 15.0441C5.8138 15.09 6.3305 15.1886 6.81584 15.4359C7.56849 15.8194 8.18041 16.4313 8.5639 17.184C8.81119 17.6693 8.90976 18.186 8.95568 18.7481C8.9999 19.2893 8.99989 19.9537 8.99988 20.7586V20.9999C8.99988 21.5522 8.55216 21.9999 7.99988 21.9999C7.44759 21.9999 6.99988 21.5522 6.99988 20.9999V20.7999C6.99988 19.9434 6.9991 19.3611 6.96233 18.911C6.92651 18.4726 6.86158 18.2483 6.78189 18.0919C6.59014 17.7156 6.28418 17.4097 5.90786 17.2179C5.75146 17.1382 5.52726 17.0733 5.08884 17.0375Z" fill="#000"/>
<path fill-rule="evenodd" clip-rule="evenodd" d="M15.9999 1.99993C16.5522 1.99993 16.9999 2.44765 16.9999 2.99993V3.19993C16.9999 4.05651 17.0007 4.6388 17.0374 5.08889C17.0732 5.52731 17.1382 5.75151 17.2179 5.90791C17.4096 6.28424 17.7156 6.5902 18.0919 6.78194C18.2483 6.86163 18.4725 6.92656 18.9109 6.96238C19.361 6.99915 19.9433 6.99993 20.7999 6.99993H20.9999C21.5522 6.99993 21.9999 7.44765 21.9999 7.99993C21.9999 8.55222 21.5522 8.99993 20.9999 8.99993H20.7586C19.9536 8.99994 19.2892 8.99996 18.7481 8.95574C18.186 8.90981 17.6693 8.81125 17.1839 8.56396C16.4313 8.18046 15.8193 7.56854 15.4359 6.81589C15.1886 6.33056 15.09 5.81385 15.0441 5.25176C14.9999 4.71056 14.9999 4.0462 14.9999 3.24123C14.9999 3.22751 14.9999 3.21374 14.9999 3.19993V2.99993C14.9999 2.44765 15.4476 1.99993 15.9999 1.99993Z" fill="#000"/>
<path fill-rule="evenodd" clip-rule="evenodd" d="M20.7586 14.9999L20.9999 14.9999C21.5522 14.9999 21.9999 15.4476 21.9999 15.9999C21.9999 16.5522 21.5522 16.9999 20.9999 16.9999H20.7999C19.9433 16.9999 19.361 17.0007 18.9109 17.0375C18.4725 17.0733 18.2483 17.1382 18.0919 17.2179C17.7156 17.4097 17.4096 17.7156 17.2179 18.0919C17.1382 18.2483 17.0732 18.4726 17.0374 18.911C17.0007 19.3611 16.9999 19.9434 16.9999 20.7999V20.9999C16.9999 21.5522 16.5522 21.9999 15.9999 21.9999C15.4476 21.9999 14.9999 21.5522 14.9999 20.9999V20.7586C14.9999 19.9537 14.9999 19.2893 15.0441 18.7481C15.09 18.186 15.1886 17.6693 15.4359 17.184C15.8193 16.4313 16.4313 15.8194 17.1839 15.4359C17.6693 15.1886 18.186 15.09 18.7481 15.0441C19.2892 14.9999 19.9536 14.9999 20.7586 14.9999Z" fill="#000"/>
</g>
</g>
</svg>
