<svg width="54" height="25" viewBox="0 0 54 25" fill="none" xmlns="http://www.w3.org/2000/svg">
<g id="logo">
<path id="Vector" d="M0 21.8499L1.40321 20.0172C2.20504 20.7904 3.15006 21.4204 4.26689 21.9359C5.38373 22.4227 6.50057 22.6804 7.64605 22.6804C9.07789 22.6804 10.252 22.3081 11.1684 21.5349C12.0848 20.7904 12.5143 19.7881 12.5143 18.5567C12.5143 17.7262 12.2852 17.0103 11.8557 16.3803C11.3975 15.7503 10.8247 15.2348 10.1375 14.8053C9.45017 14.3757 8.64834 13.9748 7.78923 13.6025C6.93012 13.2302 6.07102 12.8293 5.21191 12.4284C4.35281 12.0275 3.57961 11.5693 2.86369 11.0825C2.1764 10.5956 1.60367 9.937 1.14548 9.1638C0.687285 8.36197 0.486827 7.47423 0.486827 6.47194C0.486827 4.52463 1.20275 2.9496 2.66323 1.77549C4.09507 0.601375 5.92783 0 8.10424 0C10.6816 0 12.8293 0.773196 14.4903 2.34822L13.3161 4.35281C12.6575 3.72279 11.827 3.23597 10.882 2.86369C9.90836 2.49141 8.96334 2.29095 7.98969 2.29095C6.55785 2.29095 5.38373 2.66323 4.41008 3.37915C3.43643 4.12371 2.9496 5.09736 2.9496 6.32875C2.9496 7.10195 3.17869 7.78923 3.60825 8.41924C4.06644 9.02062 4.63917 9.53608 5.32646 9.90836C6.01374 10.3093 6.81558 10.6816 7.67468 11.0538C8.53379 11.4261 9.3929 11.7984 10.252 12.2279C11.1111 12.6289 11.8843 13.0871 12.6002 13.6025C13.2875 14.118 13.8602 14.7766 14.3184 15.5785C14.7766 16.3803 14.9771 17.3253 14.9771 18.3849C14.9771 20.3036 14.3184 21.9072 12.9725 23.1386C11.6552 24.3986 9.85109 25 7.58877 25C4.5819 24.9427 2.06186 23.9118 0 21.8499Z" fill="#262626"/>
<path id="Vector_2" d="M20.2407 0V25H22.6696V2.22156H33.3331V0H20.2407Z" fill="#262626"/>
<path id="Vector_3" d="M31.4794 11.6112H25.2007V13.7328H31.4794V11.6112Z" fill="#2F80ED"/>
<path id="Vector_4" d="M37.6433 24.9704V0H46.164C48.1463 0 49.7735 0.56213 51.0161 1.71598C52.2587 2.84024 52.9096 4.3787 52.9096 6.30177C52.9096 8.84615 51.8445 10.6805 49.7439 11.7456V11.8047C51.0161 12.1598 52.0516 12.8994 52.7912 14.0533C53.5605 15.1775 53.9155 16.5089 53.9155 17.9882C53.9155 20.1479 53.2054 21.8343 51.7853 23.1065C50.3652 24.3491 48.5901 25 46.4303 25H37.6433V24.9704ZM40.0989 10.8284H46.164C47.4066 10.8284 48.4421 10.4142 49.2114 9.61538C49.9806 8.81657 50.3948 7.75148 50.3948 6.4497C50.3948 5.17751 50.0102 4.14201 49.2409 3.37278C48.4717 2.60355 47.4362 2.18935 46.1048 2.18935H40.0989V10.8284ZM40.0989 22.7811H46.4895C47.9983 22.7811 49.2114 22.3373 50.0693 21.4793C50.9569 20.5917 51.3711 19.4083 51.3711 17.929C51.3711 16.4497 50.9273 15.2367 50.0102 14.3491C49.093 13.4615 47.9096 12.9882 46.4303 12.9882H40.0693V22.7811H40.0989Z" fill="#262626"/>
</g>
</svg>
