<svg width="24" height="23" viewBox="0 0 24 23" fill="none" xmlns="http://www.w3.org/2000/svg">
<g id="icon">
<path id="Vector" d="M19.8793 17.4168H7.20707C7.01484 17.4168 6.82871 17.3493 6.68112 17.2262C6.53353 17.103 6.43386 16.9319 6.39947 16.7428L3.65969 1.674C3.6253 1.48487 3.52563 1.31381 3.37804 1.19064C3.23046 1.06747 3.04432 1 2.85209 1H1" stroke="#2F80ED" stroke-width="2" stroke-linecap="round" stroke-linejoin="round"/>
<path id="Vector_2" d="M7.56675 21.5212C8.70009 21.5212 9.61885 20.6024 9.61885 19.4691C9.61885 18.3357 8.70009 17.417 7.56675 17.417C6.43341 17.417 5.51465 18.3357 5.51465 19.4691C5.51465 20.6024 6.43341 21.5212 7.56675 21.5212Z" stroke="#2F80ED" stroke-width="2" stroke-linecap="round" stroke-linejoin="round"/>
<path id="Vector_3" d="M19.8793 21.5212C21.0126 21.5212 21.9314 20.6024 21.9314 19.4691C21.9314 18.3357 21.0126 17.417 19.8793 17.417C18.7459 17.417 17.8271 18.3357 17.8271 19.4691C17.8271 20.6024 18.7459 21.5212 19.8793 21.5212Z" stroke="#2F80ED" stroke-width="2" stroke-linecap="round" stroke-linejoin="round"/>
<path id="Vector_4" d="M4.2832 5.104H22.179C22.2992 5.104 22.418 5.13041 22.5269 5.18137C22.6358 5.23233 22.7322 5.30658 22.8092 5.39889C22.8862 5.4912 22.9421 5.5993 22.9727 5.71556C23.0034 5.83182 23.0081 5.95339 22.9866 6.07168L21.6434 13.4592C21.609 13.6484 21.5093 13.8194 21.3618 13.9426C21.2142 14.0658 21.028 14.1333 20.8358 14.1333H5.92488" stroke="#2F80ED" stroke-width="2" stroke-linecap="round" stroke-linejoin="round"/>
</g>
</svg>
