<svg width="17" height="17" viewBox="0 0 17 17" fill="none" xmlns="http://www.w3.org/2000/svg">
<g id="Group 83">
<path id="Vector" d="M5.64894 16H1.66413C1.488 16 1.31907 15.93 1.19452 15.8055C1.06997 15.6809 1 15.512 1 15.3359V11.6262C1 11.5389 1.01718 11.4526 1.05055 11.372C1.08393 11.2914 1.13285 11.2182 1.19452 11.1565L11.1565 1.19452C11.2811 1.06997 11.45 1 11.6262 1C11.8023 1 11.9712 1.06997 12.0958 1.19452L15.8055 4.90423C15.93 5.02878 16 5.19771 16 5.37385C16 5.54999 15.93 5.71891 15.8055 5.84346L5.64894 16Z" stroke="white" stroke-width="1.6" stroke-linecap="round" stroke-linejoin="round"/>
<path id="Vector_2" d="M8.96973 3.38155L13.6187 8.03049" stroke="white" stroke-width="1.6" stroke-linecap="round" stroke-linejoin="round"/>
</g>
</svg>
