<svg width="40" height="40" viewBox="0 0 40 40" fill="none" xmlns="http://www.w3.org/2000/svg">
<g id="twitter">
<circle id="Oval" cx="20" cy="20" r="20" fill="white"/>
<g id="in">
<path id="path28" fill-rule="evenodd" clip-rule="evenodd" d="M15.5629 26V15.879H12.1989V26H15.5629ZM13.8809 14.4972C15.054 14.4972 15.7841 13.72 15.7841 12.7487C15.7623 11.7556 15.054 11 13.9031 11C12.7524 11 12 11.7556 12 12.7487C12 13.72 12.73 14.4972 13.8589 14.4972H13.8809Z" fill="#2F80ED"/>
<path id="path30" fill-rule="evenodd" clip-rule="evenodd" d="M17.4243 26H20.7883V20.348C20.7883 20.0455 20.8102 19.7433 20.899 19.5271C21.1422 18.9227 21.6957 18.2968 22.625 18.2968C23.8423 18.2968 24.3293 19.2249 24.3293 20.5855V26H27.693V20.1968C27.693 17.0881 26.0334 15.6415 23.8201 15.6415C22.0053 15.6415 21.2086 16.6559 20.7659 17.3468H20.7884V15.879H17.4244C17.4686 16.8287 17.4243 26 17.4243 26Z" fill="#2F80ED"/>
</g>
</g>
</svg>
