<svg width="25" height="25" viewBox="0 0 25 25" fill="none" xmlns="http://www.w3.org/2000/svg">
<g id="Group 186">
<path id="Vector" d="M12.5 23.521C18.5751 23.521 23.5 18.5961 23.5 12.521C23.5 6.44586 18.5751 1.521 12.5 1.521C6.42487 1.521 1.5 6.44586 1.5 12.521C1.5 18.5961 6.42487 23.521 12.5 23.521Z" stroke="#2F80ED" stroke-width="2" stroke-miterlimit="10"/>
<path id="Vector_2" d="M12.4993 16.1877C15.0307 16.1877 17.0827 14.1356 17.0827 11.6043C17.0827 9.07302 15.0307 7.021 12.4993 7.021C9.96804 7.021 7.91602 9.07302 7.91602 11.6043C7.91602 14.1356 9.96804 16.1877 12.4993 16.1877Z" stroke="#2F80ED" stroke-width="2" stroke-miterlimit="10"/>
<path id="Vector_3" d="M5.14258 20.6991C5.83307 19.3415 6.88576 18.2015 8.18411 17.4052C9.48246 16.609 10.9758 16.1875 12.4989 16.1875C14.022 16.1875 15.5154 16.609 16.8137 17.4052C18.1121 18.2015 19.1648 19.3415 19.8553 20.6991" stroke="#2F80ED" stroke-width="2" stroke-linecap="round" stroke-linejoin="round"/>
</g>
</svg>
