<svg width="24" height="24" viewBox="0 0 24 24" fill="none" xmlns="http://www.w3.org/2000/svg">
<path d="M12 19.2778C7.86182 19.2778 4.43408 15.8574 4.43408 11.7119C4.43408 7.57373 7.85449 4.146 11.9927 4.146C16.1382 4.146 19.5659 7.57373 19.5659 11.7119C19.5659 15.8574 16.1382 19.2778 12 19.2778ZM12 17.791C15.3691 17.791 18.0791 15.0811 18.0791 11.7119C18.0791 8.34277 15.3618 5.64014 11.9927 5.64014C8.62354 5.64014 5.92822 8.34277 5.92822 11.7119C5.92822 15.0811 8.63086 17.791 12 17.791ZM11.8315 13.1694C11.3921 13.1694 11.1431 12.957 11.1431 12.5469V12.4663C11.1431 11.7998 11.5239 11.4189 12.0439 11.0601C12.6665 10.6279 12.9741 10.4009 12.9741 9.93945C12.9741 9.44141 12.5713 9.08984 11.978 9.08984C11.5386 9.08984 11.187 9.30225 10.9453 9.70508L10.8281 9.85156C10.6816 10.0493 10.5059 10.1592 10.2349 10.1592C9.94189 10.1592 9.66357 9.93945 9.66357 9.58789C9.66357 9.45605 9.68555 9.33154 9.72949 9.20703C9.95654 8.51855 10.8135 7.94727 12.0659 7.94727C13.3623 7.94727 14.4609 8.64307 14.4609 9.86621C14.4609 10.7158 13.9922 11.1333 13.2744 11.6094C12.7983 11.917 12.5347 12.1733 12.5127 12.5542C12.5127 12.5762 12.5127 12.6128 12.5127 12.6421C12.4907 12.9424 12.2344 13.1694 11.8315 13.1694ZM11.8242 15.418C11.3555 15.418 10.9673 15.0737 10.9673 14.6123C10.9673 14.1582 11.3481 13.814 11.8242 13.814C12.293 13.814 12.6812 14.1509 12.6812 14.6123C12.6812 15.0737 12.293 15.418 11.8242 15.418Z" fill="#2B2B37"/>
</svg>
