<svg width="24" height="24" viewBox="0 0 24 24" fill="none" xmlns="http://www.w3.org/2000/svg">
<path d="M7.57617 18.0913C6.22119 18.0913 5.59131 17.4541 5.59131 16.1138V14.5464C5.59131 14.3999 5.55469 14.2974 5.45215 14.1948L4.34619 13.0815C3.39404 12.1294 3.38672 11.2358 4.34619 10.2837L5.45215 9.17041C5.55469 9.06787 5.59131 8.96533 5.59131 8.82617V7.25879C5.59131 5.89648 6.22119 5.27393 7.57617 5.27393H9.14355C9.28271 5.27393 9.38525 5.2373 9.48779 5.13477L10.6011 4.02881C11.5605 3.07666 12.4468 3.06934 13.3989 4.02881L14.5122 5.13477C14.6147 5.2373 14.7173 5.27393 14.8564 5.27393H16.4238C17.7788 5.27393 18.4087 5.91113 18.4087 7.25879V8.82617C18.4087 8.96533 18.4453 9.06787 18.5479 9.17041L19.6538 10.2837C20.606 11.2358 20.6133 12.1294 19.6538 13.0815L18.5479 14.1948C18.4526 14.2974 18.4087 14.3999 18.4087 14.5464V16.1138C18.4087 17.4614 17.7715 18.0913 16.4238 18.0913H14.8564C14.7173 18.0913 14.6147 18.1279 14.5122 18.2378L13.3989 19.3438C12.4468 20.2959 11.5532 20.2959 10.6011 19.3438L9.48779 18.2378C9.38525 18.1279 9.28271 18.0913 9.14355 18.0913H7.57617ZM7.67139 16.7656H9.59033C9.80273 16.7656 9.97119 16.8242 10.125 16.9927L11.4727 18.3403C11.9341 18.7944 12.0659 18.7944 12.5273 18.3403L13.875 16.9927C14.0288 16.8242 14.1973 16.7656 14.417 16.7656H16.3286C16.9731 16.7656 17.0757 16.6631 17.0757 16.0186L17.083 14.0996C17.083 13.8799 17.1489 13.7188 17.3027 13.5576L18.6504 12.2173C19.1118 11.7559 19.1118 11.6167 18.6504 11.1553L17.3027 9.81494C17.1489 9.65381 17.083 9.49268 17.0757 9.27295V7.354C17.0757 6.70947 16.9731 6.60693 16.3286 6.60693H14.417C14.1973 6.60693 14.0288 6.54834 13.875 6.37988L12.5273 5.03223C12.0659 4.57812 11.9341 4.57812 11.4727 5.03223L10.125 6.37988C9.97119 6.54834 9.80273 6.60693 9.59033 6.60693H7.67139C7.01953 6.60693 6.92432 6.70215 6.92432 7.354V9.27295C6.92432 9.49268 6.85107 9.65381 6.69727 9.81494L5.34961 11.1553C4.88818 11.6167 4.88818 11.7559 5.34961 12.2173L6.69727 13.5576C6.85107 13.7188 6.92432 13.8799 6.92432 14.0996V16.0186C6.92432 16.6631 7.02686 16.7656 7.67139 16.7656ZM11.2163 15.1689C10.9453 15.1689 10.7402 15.0518 10.5352 14.8027L8.80664 12.686C8.68213 12.5322 8.61621 12.3711 8.61621 12.1953C8.61621 11.8364 8.90186 11.5435 9.26074 11.5435C9.47314 11.5435 9.64893 11.624 9.82471 11.8511L11.1943 13.5869L14.0874 8.94336C14.2339 8.70166 14.4316 8.57715 14.6514 8.57715C14.9956 8.57715 15.3179 8.81885 15.3179 9.18506C15.3179 9.34619 15.2373 9.52197 15.1421 9.67578L11.8608 14.7954C11.707 15.0371 11.48 15.1689 11.2163 15.1689Z" fill="#2B2B37"/>
</svg>
