<svg width="24" height="24" viewBox="0 0 24 24" fill="none" xmlns="http://www.w3.org/2000/svg">
<path d="M12.5073 11.8657C10.7349 11.8657 9.30664 10.313 9.29932 8.40137C9.29199 6.51904 10.7422 4.99561 12.5073 4.99561C14.2798 4.99561 15.708 6.50439 15.708 8.38672C15.708 10.3057 14.2725 11.8657 12.5073 11.8657ZM12.5073 10.5986C13.5254 10.5986 14.3823 9.63916 14.3823 8.38672C14.3823 7.1709 13.5327 6.2627 12.5073 6.2627C11.4819 6.2627 10.625 7.18555 10.625 8.40137C10.6323 9.65381 11.4893 10.5986 12.5073 10.5986ZM7.93701 18.6772C6.66992 18.6772 6.06201 18.2817 6.06201 17.4248C6.06201 15.418 8.56689 12.7227 12.5 12.7227C16.4331 12.7227 18.938 15.418 18.938 17.4248C18.938 18.2817 18.3301 18.6772 17.0703 18.6772H7.93701ZM7.68799 17.4102H17.312C17.4805 17.4102 17.5537 17.3589 17.5537 17.2197C17.5537 16.0991 15.7373 13.9897 12.5 13.9897C9.2627 13.9897 7.45361 16.0991 7.45361 17.2197C7.45361 17.3589 7.51953 17.4102 7.68799 17.4102Z" fill="#2B2B37"/>
</svg>
