<svg width="24" height="24" viewBox="0 0 24 24" fill="none" xmlns="http://www.w3.org/2000/svg">
<path d="M5.10254 9.64648C5.10254 6.9585 6.96289 5.0835 9.35791 5.0835C10.7495 5.0835 11.8481 5.73535 12.5 6.69482C13.1592 5.72803 14.2505 5.0835 15.6421 5.0835C18.0444 5.0835 19.8975 6.9585 19.8975 9.64648C19.8975 12.7812 17.2754 15.8721 13.1812 18.5088C12.9614 18.6479 12.6904 18.7871 12.5 18.7871C12.3169 18.7871 12.0386 18.6479 11.8188 18.5088C7.72461 15.8721 5.10254 12.7812 5.10254 9.64648ZM6.57471 9.64648C6.57471 12.2393 9.27734 15.103 12.3608 17.1538C12.4268 17.1978 12.4707 17.2271 12.5 17.2271C12.5293 17.2271 12.5732 17.1978 12.6392 17.1538C15.7227 15.103 18.4253 12.2393 18.4253 9.64648C18.4253 7.78613 17.2021 6.53369 15.5615 6.53369C14.2432 6.53369 13.5254 7.34668 13.0347 8.04248C12.8149 8.32812 12.6904 8.43066 12.5 8.43066C12.3096 8.43066 12.1704 8.33545 11.9653 8.04248C11.5039 7.33936 10.7642 6.53369 9.43848 6.53369C7.79785 6.53369 6.57471 7.78613 6.57471 9.64648Z" fill="#2B2B37"/>
</svg>
