<svg width="32" height="27" viewBox="0 0 32 27" fill="none" xmlns="http://www.w3.org/2000/svg">
<g id="icon">
<path id="Vector" d="M19.75 11H26" stroke="#677483" stroke-width="2" stroke-linecap="round" stroke-linejoin="round"/>
<path id="Vector_2" d="M19.75 16H26" stroke="#677483" stroke-width="2" stroke-linecap="round" stroke-linejoin="round"/>
<path id="Vector_3" d="M10.3906 16C12.4617 16 14.1406 14.3211 14.1406 12.25C14.1406 10.1789 12.4617 8.5 10.3906 8.5C8.31956 8.5 6.64062 10.1789 6.64062 12.25C6.64062 14.3211 8.31956 16 10.3906 16Z" stroke="#677483" stroke-width="2" stroke-linecap="round" stroke-linejoin="round"/>
<path id="Vector_4" d="M5.54883 19.7499C5.82626 18.6766 6.45241 17.7259 7.32889 17.0471C8.20538 16.3684 9.28253 16 10.3911 16C11.4997 16 12.5769 16.3682 13.4534 17.0469C14.3299 17.7256 14.9562 18.6763 15.2337 19.7496" stroke="#677483" stroke-width="2" stroke-linecap="round" stroke-linejoin="round"/>
<path id="Vector_5" d="M29.75 1H2.25C1.55964 1 1 1.55964 1 2.25V24.75C1 25.4404 1.55964 26 2.25 26H29.75C30.4404 26 31 25.4404 31 24.75V2.25C31 1.55964 30.4404 1 29.75 1Z" stroke="#677483" stroke-width="2" stroke-linecap="round" stroke-linejoin="round"/>
</g>
</svg>
