<svg width="27" height="27" viewBox="0 0 27 27" fill="none" xmlns="http://www.w3.org/2000/svg">
<g id="icon">
<path id="Vector" d="M8.64578 13.3382C7.8749 11.4154 7.79156 9.28545 8.40984 7.30831C9.02811 5.33117 10.3101 3.62814 12.0391 2.48708C13.768 1.34603 15.838 0.836936 17.899 1.04586C19.96 1.25479 21.8856 2.16892 23.3504 3.63374C24.8152 5.09855 25.7294 7.0242 25.9383 9.0852C26.1472 11.1462 25.6381 13.2161 24.497 14.9451C23.356 16.6741 21.6529 17.956 19.6758 18.5743C17.6987 19.1926 15.5687 19.1092 13.6459 18.3383L13.646 18.3382L12 19.9841H9V22.9841H6V25.9841H1V20.9841L8.646 13.3381L8.64578 13.3382Z" stroke="#677483" stroke-width="2" stroke-linecap="round" stroke-linejoin="round"/>
<path id="Vector_2" d="M18.5 11C19.8807 11 21 9.88071 21 8.5C21 7.11929 19.8807 6 18.5 6C17.1193 6 16 7.11929 16 8.5C16 9.88071 17.1193 11 18.5 11Z" fill="#677483"/>
</g>
</svg>
