<svg width="24" height="26" viewBox="0 0 24 26" fill="none" xmlns="http://www.w3.org/2000/svg">
<g id="trash">
<path id="Vector" d="M23 5L1 5.00001" stroke="#677483" stroke-width="2" stroke-linecap="round" stroke-linejoin="round"/>
<path id="Vector_2" d="M9 11V19" stroke="#677483" stroke-width="2" stroke-linecap="round" stroke-linejoin="round"/>
<path id="Vector_3" d="M15 11V19" stroke="#677483" stroke-width="2" stroke-linecap="round" stroke-linejoin="round"/>
<path id="Vector_4" d="M21 5.00001V24C21 24.2652 20.8946 24.5196 20.7071 24.7071C20.5196 24.8946 20.2652 25 20 25H4C3.73478 25 3.48043 24.8946 3.29289 24.7071C3.10536 24.5196 3 24.2652 3 24V5" stroke="#677483" stroke-width="2" stroke-linecap="round" stroke-linejoin="round"/>
<path id="Vector_5" d="M17 5V3C17 2.46957 16.7893 1.96086 16.4142 1.58579C16.0391 1.21071 15.5304 1 15 1H9C8.46957 1 7.96086 1.21071 7.58579 1.58579C7.21071 1.96086 7 2.46957 7 3V5" stroke="#677483" stroke-width="2" stroke-linecap="round" stroke-linejoin="round"/>
</g>
</svg>
